<?xml version="1.0" encoding="UTF-8" standalone="no"?>
<!DOCTYPE svg PUBLIC "-//W3C//DTD SVG 1.1//EN" "http://www.w3.org/Graphics/SVG/1.1/DTD/svg11.dtd">
<svg width="100%" height="100%" viewBox="0 0 300 300" version="1.1" xmlns="http://www.w3.org/2000/svg" xmlns:xlink="http://www.w3.org/1999/xlink" xml:space="preserve" style="fill-rule:evenodd;clip-rule:evenodd;stroke-linejoin:round;stroke-miterlimit:1.41421;">
    <g id="Filled" transform="matrix(1.02042,0,0,1.02256,-4.64121,-3.16596)">
        <g transform="matrix(1,0,0,1,-5.26945,0.17217)">
            <path d="M66.931,206.328L66.821,206.308C64.016,205.78 61.334,204.69 58.931,203.153C58.334,202.771 57.754,202.363 57.193,201.93C56.737,201.579 56.294,201.213 55.862,200.832C52.435,197.806 49.84,193.94 47.86,189.844C47.297,188.677 46.781,187.488 46.307,186.282C45.976,185.442 45.669,184.592 45.368,183.741C45.012,182.73 44.668,181.714 44.339,180.694C43.691,178.691 43.095,176.672 42.551,174.638C41.287,169.917 40.298,165.122 39.588,160.286C38.97,156.071 38.562,151.824 38.382,147.567C38.238,144.149 38.239,140.724 38.412,137.307C38.56,134.396 38.83,131.489 39.268,128.606C39.606,126.374 40.043,124.152 40.634,121.972C41.096,120.264 41.651,118.574 42.373,116.958C42.907,115.762 43.536,114.597 44.327,113.551C44.561,113.241 44.809,112.943 45.073,112.66C45.211,112.512 45.353,112.366 45.505,112.233C45.659,112.099 45.823,111.977 45.995,111.867C46.201,111.737 46.42,111.628 46.635,111.517C46.897,111.382 47.162,111.252 47.428,111.126C48.773,110.492 50.169,109.969 51.588,109.53C54.204,108.722 56.902,108.195 59.614,107.833C63.21,107.353 66.838,107.171 70.463,107.13C71.039,107.126 71.614,107.124 72.19,107.126C72.613,107.128 73.035,107.132 73.457,107.137L73.874,107.143C74.131,107.147 74.404,107.145 74.661,107.174C74.782,107.188 74.902,107.207 75.021,107.231L74.375,115.142C74.31,115.144 74.237,115.145 74.145,115.148C73.616,115.139 73.088,115.133 72.559,115.128C69.956,115.114 67.352,115.167 64.755,115.352C62.99,115.478 61.229,115.662 59.48,115.935C58.028,116.161 56.583,116.448 55.162,116.826C53.632,117.233 52.131,117.747 50.701,118.429L50.651,118.453C50.451,118.729 50.277,119.024 50.115,119.324C49.899,119.727 49.706,120.143 49.528,120.565C49.074,121.644 48.713,122.763 48.402,123.892C47.926,125.619 47.568,127.377 47.281,129.144C46.948,131.198 46.714,133.268 46.553,135.342C46.325,138.295 46.246,141.258 46.289,144.219C46.339,147.653 46.554,151.084 46.918,154.499C47.364,158.689 48.036,162.855 48.926,166.974C49.932,171.63 51.218,176.226 52.788,180.724C53.164,181.802 53.552,182.877 53.984,183.934C54.355,184.841 54.754,185.737 55.187,186.616C55.502,187.257 55.835,187.889 56.188,188.509C56.474,189.012 56.772,189.506 57.085,189.992C58.752,192.58 60.856,194.956 63.499,196.575C63.872,196.803 64.255,197.016 64.646,197.211C65.171,197.473 65.712,197.703 66.265,197.898C66.699,198.051 67.14,198.182 67.587,198.29L66.931,206.328Z" style="fill:rgb(248,93,93);"/>
        </g>
        <path d="M130.542,19.291C131.527,19.309 132.511,19.365 133.492,19.465C135.574,19.678 137.636,20.081 139.644,20.67C142.874,21.617 145.959,23.045 148.774,24.889C151.724,26.821 154.373,29.206 156.605,31.936C157.357,32.855 161.275,39.255 161.275,39.255C161.275,39.255 164.125,36.11 164.544,35.706C166.75,33.578 169.246,31.752 171.944,30.297C175.336,28.468 179.042,27.234 182.854,26.666C184.447,26.429 186.058,26.307 187.67,26.299L188.015,26.299C189.972,26.31 191.927,26.491 193.852,26.84C197.152,27.44 200.357,28.541 203.33,30.095C206.298,31.646 209.03,33.644 211.41,35.999C213.833,38.396 215.89,41.16 217.486,44.172C218.536,46.153 219.386,48.24 220.017,50.392C220.347,51.516 220.614,52.656 220.827,53.808L221.02,53.678C221.068,53.645 221.116,53.613 221.213,53.549C222.061,52.997 222.935,52.489 223.841,52.038L223.841,52.037L223.843,52.036C223.949,51.964 224.056,51.894 224.162,51.824C224.985,51.288 225.843,50.804 226.729,50.38C227.905,49.818 229.133,49.362 230.393,49.026C231.522,48.724 232.677,48.519 233.841,48.414C234.39,48.364 234.939,48.339 235.49,48.33C235.727,48.328 235.727,48.328 235.964,48.33C236.435,48.338 236.906,48.356 237.377,48.393C238.308,48.466 239.234,48.6 240.148,48.792C241.05,48.982 241.94,49.228 242.813,49.525C243.461,49.746 244.1,49.995 244.727,50.27C248.628,51.98 252.042,54.662 254.927,57.77C255.35,58.225 255.761,58.69 256.163,59.164C256.722,59.823 257.26,60.498 257.78,61.189C258.453,62.083 259.095,63.001 259.706,63.939C261.528,66.736 263.083,69.703 264.407,72.765C266.036,76.527 267.318,80.437 268.289,84.419C269.092,87.712 269.681,91.056 270.061,94.424C270.391,97.35 270.565,100.294 270.57,103.238C270.575,106.211 270.407,109.185 270.043,112.136C269.72,114.754 269.244,117.353 268.588,119.908C268.244,121.249 267.85,122.578 267.402,123.888C267.067,124.864 266.703,125.83 266.306,126.783C266.006,127.502 265.688,128.213 265.349,128.916C263.267,133.239 260.401,137.27 256.594,140.239C256.364,140.418 256.132,140.593 255.896,140.763C255.311,141.338 254.768,141.9 254.448,142.272C254.064,142.64 253.711,143.037 253.391,143.462C252.984,144.002 252.633,144.579 252.315,145.175C252.23,145.384 252.146,145.593 252.064,145.803C251.192,148.065 250.517,150.393 249.883,152.73C249.507,154.116 249.145,155.505 248.77,156.891C248.645,157.348 248.518,157.806 248.39,158.262C247.942,159.837 247.607,161.464 246.914,162.947L246.846,163.09C246.44,164.174 245.987,165.242 245.458,166.273C245.103,166.964 244.711,167.641 244.275,168.287C243.543,169.493 242.62,170.65 241.05,172.161C239.877,173.29 236.957,174.195 234.034,173.943C232.862,173.92 231.695,173.717 230.585,173.338C228.579,172.654 226.782,171.4 225.44,169.76C224.723,168.883 224.145,167.904 223.711,166.858L223.671,166.759L223.632,166.66C223.504,166.455 223.377,166.25 223.252,166.043C221.669,163.395 220.438,160.554 219.355,157.67C218.705,155.936 218.119,154.18 217.505,152.434C217.416,152.186 217.327,151.939 217.235,151.693C217.126,151.407 217.015,151.12 216.886,150.842C216.833,150.728 216.777,150.614 216.711,150.506C216.672,150.442 216.63,150.376 216.577,150.322C216.489,150.231 216.371,150.176 216.252,150.138C216.051,150.073 215.836,150.05 215.625,150.039C215.579,150.037 215.533,150.035 215.486,150.034L215.347,150.032C215.068,150.031 214.79,150.047 214.512,150.068C214.068,150.102 213.626,150.154 213.183,150.207C212.069,150.348 210.956,150.504 209.842,150.646C208.414,150.823 206.983,150.974 205.546,151.052C204.968,151.083 204.389,151.101 203.811,151.107L203.463,151.109C203.348,151.109 203.232,151.109 203.116,151.108L202.768,151.104C202.597,151.118 202.425,151.129 202.253,151.139C202.034,151.149 201.816,151.156 201.597,151.159L201.433,151.16C201.269,151.161 201.105,151.159 200.941,151.155C200.071,151.132 199.203,151.043 198.347,150.885C196.007,150.455 193.77,149.517 191.82,148.154C191.2,147.72 190.609,147.245 190.053,146.732C189.8,146.499 189.556,146.257 189.317,146.01C189.222,145.93 189.223,145.93 189.13,145.847C188.972,145.702 188.82,145.553 188.674,145.396C188.079,144.757 187.586,144.029 187.15,143.275C186.955,142.939 186.776,142.596 186.598,142.251C186.439,141.943 186.283,141.634 186.14,141.319C186.029,141.072 185.927,140.821 185.824,140.571C185.745,140.38 185.664,140.191 185.587,139.999C184.92,138.355 184.354,136.671 183.822,134.979C183.224,133.08 182.672,131.167 182.126,129.253C181.57,127.305 181.022,125.356 180.465,123.409C180.228,122.583 179.988,121.758 179.746,120.933C178.909,118.094 178.04,115.266 177.097,112.461C176.169,109.699 175.168,106.962 174.084,104.257L173.944,103.91L173.803,103.564C173.795,103.58 173.783,103.594 173.766,103.606C173.117,104.681 172.298,105.653 171.348,106.475C170.4,107.297 169.322,107.969 168.167,108.458C166.691,109.082 165.094,109.405 163.492,109.405C161.89,109.405 160.292,109.082 158.817,108.458C157.661,107.969 156.584,107.297 155.635,106.475C154.621,105.597 153.756,104.548 153.086,103.384C152.764,102.824 152.488,102.238 152.26,101.634L152.207,101.589C151.996,101.81 151.781,102.027 151.562,102.241C149.183,104.564 146.372,106.438 143.309,107.734C140.083,109.099 136.593,109.813 133.09,109.836C129.691,109.857 126.295,109.228 123.132,107.98C120.233,106.837 117.542,105.18 115.212,103.112C113.055,101.198 111.21,98.935 109.772,96.435C108.744,94.648 107.924,92.741 107.335,90.764C107.128,90.07 106.951,89.367 106.802,88.658C106.713,88.547 106.627,88.433 106.545,88.318C106.387,88.098 106.242,87.87 106.105,87.637C106.001,87.774 105.897,87.909 105.791,88.043C104.905,89.158 103.931,90.198 102.866,91.145C100.551,93.202 97.843,94.809 94.924,95.844C91.665,97.001 88.163,97.434 84.719,97.128C81.51,96.843 78.368,95.906 75.528,94.384C72.078,92.536 69.098,89.843 66.907,86.601C65.346,84.292 64.191,81.713 63.513,79.01C62.881,76.493 62.664,73.874 62.861,71.286C63.036,68.995 63.539,66.732 64.356,64.584C65.34,61.999 66.774,59.59 68.573,57.489C70.488,55.252 72.812,53.368 75.4,51.961C78.094,50.497 81.066,49.559 84.112,49.21C86.682,48.916 89.3,49.033 91.832,49.564C93.054,49.82 94.253,50.175 95.422,50.615L95.55,50.664L95.678,50.714C95.696,50.508 95.716,50.303 95.737,50.097C95.86,48.944 96.035,47.799 96.271,46.663C96.746,44.375 97.458,42.136 98.39,39.993C100.297,35.61 103.127,31.642 106.64,28.401C109.969,25.329 113.901,22.922 118.155,21.366C120.495,20.511 122.928,19.913 125.398,19.585C126.632,19.422 127.873,19.329 129.117,19.295C129.368,19.29 129.618,19.287 129.869,19.286L130.12,19.286L130.542,19.291Z" style="fill:rgb(248,93,93);"/>
        <path d="M77.982,104.904C79.46,105.318 80.967,105.629 82.488,105.833C85.966,106.298 89.517,106.204 92.966,105.559C94.904,105.196 96.809,104.66 98.65,103.956C99.642,103.576 100.612,103.146 101.564,102.675C101.742,102.586 101.919,102.495 102.095,102.404C102.319,102.287 102.541,102.167 102.763,102.046L102.803,102.11C102.996,102.413 103.192,102.716 103.393,103.015C103.862,103.711 104.357,104.391 104.874,105.053C106.604,107.266 108.595,109.274 110.795,111.021C113.929,113.509 117.483,115.467 121.265,116.777C124.742,117.982 128.406,118.64 132.085,118.726C134.698,118.788 137.317,118.56 139.88,118.05C142.1,117.608 144.277,116.955 146.372,116.099C147.472,115.65 148.546,115.142 149.596,114.588C149.779,114.49 149.962,114.391 150.144,114.29C150.341,114.181 150.537,114.07 150.732,113.957L150.76,113.98C151.141,114.269 151.527,114.548 151.925,114.813C152.721,115.341 153.552,115.816 154.413,116.231C157.155,117.555 160.185,118.266 163.23,118.304C164.449,118.319 165.67,118.227 166.874,118.03C167.389,117.945 167.899,117.839 168.407,117.719C168.661,117.656 168.66,117.656 168.913,117.59C169.143,117.527 169.143,117.527 169.373,117.461L169.484,117.807C170.206,120.078 170.894,122.36 171.559,124.648C171.815,125.533 172.068,126.419 172.321,127.304C172.736,128.767 173.15,130.23 173.567,131.693C173.954,133.05 174.344,134.406 174.751,135.758C175.54,138.384 176.378,141.001 177.419,143.539C177.574,143.911 177.727,144.283 177.884,144.653C178.177,145.324 178.503,145.977 178.841,146.625C179.546,147.98 180.352,149.287 181.31,150.479C181.619,150.862 181.942,151.234 182.281,151.59C182.475,151.794 182.676,151.99 182.878,152.186C182.986,152.287 183.092,152.389 183.203,152.487C183.922,153.221 184.696,153.905 185.502,154.542C188.627,157.014 192.328,158.74 196.232,159.54C197.704,159.842 199.203,160.012 200.706,160.052C201.376,160.07 202.046,160.056 202.715,160.027L203.103,160.003L203.038,160.008L203.054,160.008C203.956,160.011 204.859,159.996 205.76,159.953C207,159.892 208.235,159.783 209.468,159.65C209.831,159.61 210.194,159.569 210.556,159.525C211.417,161.916 212.358,164.28 213.456,166.573C214.011,167.734 214.61,168.871 215.248,169.989C215.377,170.211 215.505,170.433 215.638,170.653L215.65,170.682L215.709,170.776L215.784,170.944L215.862,171.111C216.127,171.672 216.412,172.223 216.724,172.759C217.322,173.786 218.01,174.762 218.779,175.668C221.184,178.504 224.368,180.659 227.899,181.825C229.14,182.235 230.421,182.523 231.718,182.686C232.327,182.763 232.938,182.806 233.551,182.833L233.59,182.835C233.727,182.842 233.865,182.853 234.002,182.86C234.321,182.876 234.64,182.884 234.96,182.885C235.881,182.889 236.802,182.831 237.716,182.715C239.021,182.548 240.313,182.263 241.562,181.849C242.629,181.496 243.667,181.048 244.643,180.489C245.316,180.103 245.961,179.663 246.558,179.167C246.916,178.87 247.251,178.548 247.583,178.222C247.93,177.88 248.271,177.532 248.604,177.177C249.071,176.68 249.521,176.168 249.952,175.639L256.902,260.766C257.031,260.832 257.159,260.901 257.287,260.971C257.404,261.037 257.52,261.104 257.636,261.172C258.458,261.669 259.228,262.258 259.836,263.008C260.301,263.582 260.664,264.239 260.876,264.948C261.034,265.477 261.107,266.028 261.091,266.579C261.079,266.977 261.02,267.374 260.917,267.758C260.833,268.073 260.719,268.38 260.579,268.674C260.469,268.905 260.343,269.128 260.203,269.342C259.386,270.592 258.127,271.468 256.812,272.132C256.585,272.247 256.355,272.356 256.123,272.46C255.824,272.594 255.521,272.72 255.216,272.841C254.831,272.992 254.442,273.134 254.051,273.268C253.49,273.46 252.925,273.637 252.356,273.803C251.151,274.153 249.932,274.456 248.707,274.731C247.686,274.961 246.66,275.172 245.631,275.367C243.025,275.861 240.404,276.275 237.777,276.64C234.668,277.073 231.55,277.439 228.428,277.765C224.864,278.136 221.295,278.452 217.723,278.73C213.059,279.093 208.39,279.39 203.718,279.638C198.588,279.91 193.455,280.123 188.32,280.286C177.035,280.644 165.742,280.769 154.452,280.693C143.592,280.619 132.733,280.358 121.885,279.851C117.4,279.642 112.917,279.389 108.438,279.083C104.108,278.787 99.781,278.44 95.462,278.021C92.475,277.732 89.492,277.407 86.515,277.032C84.371,276.761 82.23,276.465 80.096,276.128C78.145,275.819 76.198,275.479 74.262,275.082C72.64,274.749 71.024,274.378 69.43,273.931C68.184,273.582 66.946,273.187 65.75,272.692C64.815,272.304 63.897,271.853 63.066,271.273C62.568,270.926 62.102,270.53 61.697,270.077C60.97,269.264 60.459,268.263 60.298,267.18C60.249,266.852 60.231,266.517 60.247,266.185C60.266,265.792 60.33,265.402 60.437,265.023C60.59,264.479 60.833,263.963 61.144,263.491C61.28,263.285 61.43,263.087 61.59,262.899C62.564,261.75 63.899,260.985 65.255,260.374L65.291,260.358L77.982,104.904Z" style="fill:rgb(248,93,93);"/>
    </g>
</svg>
